<mxfile host="65bd71144e">
    <diagram id="Q1Noih3qpSG-DwPlIvqt" name="ページ1">
        <mxGraphModel dx="2624" dy="1218" grid="1" gridSize="5" guides="1" tooltips="1" connect="1" arrows="1" fold="1" page="1" pageScale="1" pageWidth="1800" pageHeight="1200" background="#FFFFFF" math="0" shadow="0">
            <root>
                <mxCell id="0"/>
                <mxCell id="1" parent="0"/>
                <mxCell id="103" value="Backend" style="rounded=0;whiteSpace=wrap;html=1;align=left;verticalAlign=top;spacing=10;fillColor=none;fontStyle=1;fontFamily=Helvetica;fontSize=13;" parent="1" vertex="1">
                    <mxGeometry x="840" y="80" width="1280" height="2540" as="geometry"/>
                </mxCell>
                <mxCell id="104" value="User Server" style="rounded=0;whiteSpace=wrap;html=1;fillColor=none;align=left;verticalAlign=top;spacing=10;fontStyle=1;fontFamily=Helvetica;fontSize=13;" vertex="1" parent="1">
                    <mxGeometry x="1500" y="120" width="580" height="480" as="geometry"/>
                </mxCell>
                <mxCell id="106" value="Docker" style="rounded=0;whiteSpace=wrap;html=1;fillColor=none;align=left;verticalAlign=top;spacing=10;fontStyle=1;fontFamily=Helvetica;fontSize=13;" vertex="1" parent="1">
                    <mxGeometry x="1540" y="160" width="500" height="180" as="geometry"/>
                </mxCell>
                <mxCell id="61" value="構成図" style="rounded=0;whiteSpace=wrap;html=1;fillColor=none;fontFamily=Helvetica;fontSize=13;" parent="1" vertex="1">
                    <mxGeometry x="20" y="20" width="100" height="40" as="geometry"/>
                </mxCell>
                <mxCell id="62" value="Frontend" style="rounded=0;whiteSpace=wrap;html=1;align=left;verticalAlign=top;spacing=10;fillColor=none;fontStyle=1;fontFamily=Helvetica;fontSize=13;" parent="1" vertex="1">
                    <mxGeometry x="79" y="80" width="660" height="2540" as="geometry"/>
                </mxCell>
                <mxCell id="63" value="User App" style="rounded=0;whiteSpace=wrap;html=1;align=left;verticalAlign=top;spacing=10;fillColor=none;fontStyle=1;fontFamily=Helvetica;fontSize=13;" parent="1" vertex="1">
                    <mxGeometry x="119" y="120" width="580" height="520" as="geometry"/>
                </mxCell>
                <mxCell id="64" value="windows" style="rounded=0;whiteSpace=wrap;html=1;fillColor=none;align=left;verticalAlign=top;spacing=10;fontStyle=1;fontFamily=Helvetica;fontSize=13;" parent="1" vertex="1">
                    <mxGeometry x="159" y="160" width="500" height="120" as="geometry"/>
                </mxCell>
                <mxCell id="65" value="C#" style="rounded=0;whiteSpace=wrap;html=1;fillColor=none;align=center;verticalAlign=middle;spacing=10;fontFamily=Helvetica;fontSize=13;" parent="1" vertex="1">
                    <mxGeometry x="179" y="200" width="80" height="40" as="geometry"/>
                </mxCell>
                <mxCell id="66" value="Python" style="rounded=0;whiteSpace=wrap;html=1;fillColor=none;align=center;verticalAlign=middle;spacing=10;fontFamily=Helvetica;fontSize=13;" parent="1" vertex="1">
                    <mxGeometry x="299" y="200" width="80" height="40" as="geometry"/>
                </mxCell>
                <mxCell id="67" value="Java" style="rounded=0;whiteSpace=wrap;html=1;fillColor=none;align=center;verticalAlign=middle;spacing=10;fontFamily=Helvetica;fontSize=13;" parent="1" vertex="1">
                    <mxGeometry x="439" y="200" width="80" height="40" as="geometry"/>
                </mxCell>
                <mxCell id="68" value="Web" style="rounded=0;whiteSpace=wrap;html=1;fillColor=none;align=left;verticalAlign=top;spacing=10;fontStyle=1;fontFamily=Helvetica;fontSize=13;" parent="1" vertex="1">
                    <mxGeometry x="159" y="320" width="500" height="120" as="geometry"/>
                </mxCell>
                <mxCell id="69" value="React" style="rounded=0;whiteSpace=wrap;html=1;fillColor=none;align=center;verticalAlign=middle;spacing=10;fontFamily=Helvetica;fontSize=13;" parent="1" vertex="1">
                    <mxGeometry x="179" y="360" width="80" height="40" as="geometry"/>
                </mxCell>
                <mxCell id="70" value="Blazor" style="rounded=0;whiteSpace=wrap;html=1;fillColor=none;align=center;verticalAlign=middle;spacing=10;fontFamily=Helvetica;fontSize=13;" parent="1" vertex="1">
                    <mxGeometry x="299" y="360" width="80" height="40" as="geometry"/>
                </mxCell>
                <mxCell id="71" value="Flutter" style="rounded=0;whiteSpace=wrap;html=1;fillColor=none;align=center;verticalAlign=middle;spacing=10;fontFamily=Helvetica;fontSize=13;" parent="1" vertex="1">
                    <mxGeometry x="559" y="200" width="80" height="40" as="geometry"/>
                </mxCell>
                <mxCell id="73" value="Android" style="rounded=0;whiteSpace=wrap;html=1;fillColor=none;align=left;verticalAlign=top;spacing=10;fontStyle=1;fontFamily=Helvetica;fontSize=13;" parent="1" vertex="1">
                    <mxGeometry x="159" y="480" width="240" height="120" as="geometry"/>
                </mxCell>
                <mxCell id="74" value="iOS" style="rounded=0;whiteSpace=wrap;html=1;fillColor=none;align=left;verticalAlign=top;spacing=10;fontStyle=1;fontFamily=Helvetica;fontSize=13;" parent="1" vertex="1">
                    <mxGeometry x="419" y="480" width="240" height="120" as="geometry"/>
                </mxCell>
                <mxCell id="75" value="Java" style="rounded=0;whiteSpace=wrap;html=1;fillColor=none;align=center;verticalAlign=middle;spacing=10;fontFamily=Helvetica;fontSize=13;" parent="1" vertex="1">
                    <mxGeometry x="179" y="520" width="80" height="40" as="geometry"/>
                </mxCell>
                <mxCell id="76" value="Flutter" style="rounded=0;whiteSpace=wrap;html=1;fillColor=none;align=center;verticalAlign=middle;spacing=10;fontFamily=Helvetica;fontSize=13;" parent="1" vertex="1">
                    <mxGeometry x="299" y="520" width="80" height="40" as="geometry"/>
                </mxCell>
                <mxCell id="77" value="Swift" style="rounded=0;whiteSpace=wrap;html=1;fillColor=none;align=center;verticalAlign=middle;spacing=10;fontFamily=Helvetica;fontSize=13;" parent="1" vertex="1">
                    <mxGeometry x="439" y="520" width="80" height="40" as="geometry"/>
                </mxCell>
                <mxCell id="78" value="Flutter" style="rounded=0;whiteSpace=wrap;html=1;fillColor=none;align=center;verticalAlign=middle;spacing=10;fontFamily=Helvetica;fontSize=13;" parent="1" vertex="1">
                    <mxGeometry x="559" y="520" width="80" height="40" as="geometry"/>
                </mxCell>
                <mxCell id="79" value="Framework App" style="rounded=0;whiteSpace=wrap;html=1;align=left;verticalAlign=top;spacing=10;fillColor=none;fontStyle=1;fontFamily=Helvetica;fontSize=13;" parent="1" vertex="1">
                    <mxGeometry x="119" y="680" width="580" height="1900" as="geometry"/>
                </mxCell>
                <mxCell id="80" value="Web" style="rounded=0;whiteSpace=wrap;html=1;fillColor=none;align=left;verticalAlign=top;spacing=10;fontStyle=1;fontFamily=Helvetica;fontSize=13;" parent="1" vertex="1">
                    <mxGeometry x="159" y="720" width="500" height="1820" as="geometry"/>
                </mxCell>
                <mxCell id="81" value="React" style="rounded=0;whiteSpace=wrap;html=1;fillColor=none;align=left;verticalAlign=top;spacing=10;fontStyle=1;fontFamily=Helvetica;fontSize=13;" parent="1" vertex="1">
                    <mxGeometry x="199" y="760" width="420" height="1740" as="geometry"/>
                </mxCell>
                <mxCell id="82" value="マスタ系メンテナンス画面&lt;div&gt;（各マスタテーブルのメンテナンスを実施する画面）&lt;/div&gt;" style="rounded=0;whiteSpace=wrap;html=1;fillColor=none;align=center;verticalAlign=middle;spacing=10;fontFamily=Helvetica;fontSize=13;" parent="1" vertex="1">
                    <mxGeometry x="239" y="800" width="340" height="60" as="geometry"/>
                </mxCell>
                <mxCell id="83" value="モニタリング画面&lt;div&gt;（各APIへのアクセス状況を監視する画面）&lt;/div&gt;" style="rounded=0;whiteSpace=wrap;html=1;fillColor=none;align=center;verticalAlign=middle;spacing=10;fontFamily=Helvetica;fontSize=13;" parent="1" vertex="1">
                    <mxGeometry x="239" y="900" width="340" height="60" as="geometry"/>
                </mxCell>
                <mxCell id="84" value="ログ参照画面&lt;br&gt;&lt;div&gt;（各APIで出力されたログを参照する画面）&lt;/div&gt;" style="rounded=0;whiteSpace=wrap;html=1;fillColor=none;align=center;verticalAlign=middle;spacing=10;fontFamily=Helvetica;fontSize=13;" parent="1" vertex="1">
                    <mxGeometry x="239" y="1000" width="340" height="60" as="geometry"/>
                </mxCell>
                <mxCell id="85" value="サービス監視画面&lt;br&gt;&lt;div&gt;（各APIの死活監視をする画面）&lt;/div&gt;" style="rounded=0;whiteSpace=wrap;html=1;fillColor=none;align=center;verticalAlign=middle;spacing=10;fontFamily=Helvetica;fontSize=13;" parent="1" vertex="1">
                    <mxGeometry x="239" y="1100" width="340" height="60" as="geometry"/>
                </mxCell>
                <mxCell id="87" value="システム設定管理画面&lt;br&gt;&lt;div&gt;（Freameworkの設定をする画面）&lt;/div&gt;" style="rounded=0;whiteSpace=wrap;html=1;fillColor=none;align=center;verticalAlign=middle;spacing=10;fontFamily=Helvetica;fontSize=13;" parent="1" vertex="1">
                    <mxGeometry x="239" y="1200" width="340" height="60" as="geometry"/>
                </mxCell>
                <mxCell id="88" value="ジョブ管理画面&lt;br&gt;&lt;div&gt;（ジョブの設定と結果確認をする画面）&lt;/div&gt;" style="rounded=0;whiteSpace=wrap;html=1;fillColor=none;align=center;verticalAlign=middle;spacing=10;fontFamily=Helvetica;fontSize=13;" parent="1" vertex="1">
                    <mxGeometry x="239" y="1300" width="340" height="60" as="geometry"/>
                </mxCell>
                <mxCell id="89" value="レポート画面&lt;br&gt;&lt;div&gt;（システムの利用統計をレポートとして出力する画面）&lt;/div&gt;" style="rounded=0;whiteSpace=wrap;html=1;fillColor=none;align=center;verticalAlign=middle;spacing=10;fontFamily=Helvetica;fontSize=13;" parent="1" vertex="1">
                    <mxGeometry x="239" y="1400" width="340" height="60" as="geometry"/>
                </mxCell>
                <mxCell id="90" value="監査ログ画面&lt;br&gt;&lt;div&gt;（システム内での操作履歴を出力する画面）&lt;/div&gt;" style="rounded=0;whiteSpace=wrap;html=1;fillColor=none;align=center;verticalAlign=middle;spacing=10;fontFamily=Helvetica;fontSize=13;" parent="1" vertex="1">
                    <mxGeometry x="239" y="2400" width="340" height="60" as="geometry"/>
                </mxCell>
                <mxCell id="91" value="データインポート/エクスポート画面&lt;br&gt;&lt;div&gt;（データの入出力する画面）&lt;/div&gt;" style="rounded=0;whiteSpace=wrap;html=1;fillColor=none;align=center;verticalAlign=middle;spacing=10;fontFamily=Helvetica;fontSize=13;" parent="1" vertex="1">
                    <mxGeometry x="239" y="2300" width="340" height="60" as="geometry"/>
                </mxCell>
                <mxCell id="92" value="ヘルプ画面&lt;br&gt;&lt;div&gt;（操作方法を説明する画面）&lt;/div&gt;" style="rounded=0;whiteSpace=wrap;html=1;fillColor=none;align=center;verticalAlign=middle;spacing=10;fontFamily=Helvetica;fontSize=13;" parent="1" vertex="1">
                    <mxGeometry x="239" y="2200" width="340" height="60" as="geometry"/>
                </mxCell>
                <mxCell id="93" value="お問い合わせ画面&lt;br&gt;&lt;div&gt;（システム管理者へお問い合わせをする画面）&lt;/div&gt;" style="rounded=0;whiteSpace=wrap;html=1;fillColor=none;align=center;verticalAlign=middle;spacing=10;fontFamily=Helvetica;fontSize=13;" parent="1" vertex="1">
                    <mxGeometry x="239" y="1500" width="340" height="60" as="geometry"/>
                </mxCell>
                <mxCell id="94" value="エラー履歴画面&lt;br&gt;&lt;div&gt;（システムエラーを参照する画面）&lt;/div&gt;" style="rounded=0;whiteSpace=wrap;html=1;fillColor=none;align=center;verticalAlign=middle;spacing=10;fontFamily=Helvetica;fontSize=13;" parent="1" vertex="1">
                    <mxGeometry x="239" y="1600" width="340" height="60" as="geometry"/>
                </mxCell>
                <mxCell id="95" value="API登録画面&lt;br&gt;&lt;div&gt;（APIを登録、管理する画面）&lt;/div&gt;" style="rounded=0;whiteSpace=wrap;html=1;fillColor=none;align=center;verticalAlign=middle;spacing=10;fontFamily=Helvetica;fontSize=13;" parent="1" vertex="1">
                    <mxGeometry x="239" y="1700" width="340" height="60" as="geometry"/>
                </mxCell>
                <mxCell id="96" value="Flutter" style="rounded=0;whiteSpace=wrap;html=1;fillColor=none;align=center;verticalAlign=middle;spacing=10;fontFamily=Helvetica;fontSize=13;" parent="1" vertex="1">
                    <mxGeometry x="439" y="360" width="80" height="40" as="geometry"/>
                </mxCell>
                <mxCell id="98" value="通知管理画面&lt;br&gt;&lt;div&gt;（通知を設定・管理する画面）&lt;/div&gt;" style="rounded=0;whiteSpace=wrap;html=1;fillColor=none;align=center;verticalAlign=middle;spacing=10;fontFamily=Helvetica;fontSize=13;" parent="1" vertex="1">
                    <mxGeometry x="239" y="1800" width="340" height="60" as="geometry"/>
                </mxCell>
                <mxCell id="99" value="ダッシュボード画面&lt;br&gt;&lt;div&gt;（システム概要を表示する画面）&lt;/div&gt;" style="rounded=0;whiteSpace=wrap;html=1;fillColor=none;align=center;verticalAlign=middle;spacing=10;fontFamily=Helvetica;fontSize=13;" parent="1" vertex="1">
                    <mxGeometry x="239" y="2000" width="340" height="60" as="geometry"/>
                </mxCell>
                <mxCell id="100" value="バックアップ管理画面&lt;br&gt;&lt;div&gt;（データのバックアップを管理する画面）&lt;/div&gt;" style="rounded=0;whiteSpace=wrap;html=1;fillColor=none;align=center;verticalAlign=middle;spacing=10;fontFamily=Helvetica;fontSize=13;" parent="1" vertex="1">
                    <mxGeometry x="239" y="2100" width="340" height="60" as="geometry"/>
                </mxCell>
                <mxCell id="101" value="アクセスログ画面&lt;br&gt;&lt;div&gt;（アクセス履歴を確認する画面）&lt;/div&gt;" style="rounded=0;whiteSpace=wrap;html=1;fillColor=none;align=center;verticalAlign=middle;spacing=10;fontFamily=Helvetica;fontSize=13;" parent="1" vertex="1">
                    <mxGeometry x="239" y="1900" width="340" height="60" as="geometry"/>
                </mxCell>
                <mxCell id="105" value="ログインAPI&lt;div&gt;（ユーザーが存在するか確認）&lt;/div&gt;" style="rounded=0;whiteSpace=wrap;html=1;fillColor=none;align=center;verticalAlign=middle;spacing=10;fontFamily=Helvetica;fontSize=13;" vertex="1" parent="1">
                    <mxGeometry x="1580" y="200" width="420" height="100" as="geometry"/>
                </mxCell>
                <mxCell id="107" value="Docker" style="rounded=0;whiteSpace=wrap;html=1;fillColor=none;align=left;verticalAlign=top;spacing=10;fontStyle=1;fontFamily=Helvetica;fontSize=13;" vertex="1" parent="1">
                    <mxGeometry x="1540" y="380" width="500" height="180" as="geometry"/>
                </mxCell>
                <mxCell id="108" value="その他API&lt;div&gt;（ユーザー独自のAPI）&lt;/div&gt;" style="rounded=0;whiteSpace=wrap;html=1;fillColor=none;align=center;verticalAlign=middle;spacing=10;fontFamily=Helvetica;fontSize=13;" vertex="1" parent="1">
                    <mxGeometry x="1580" y="420" width="420" height="100" as="geometry"/>
                </mxCell>
                <mxCell id="109" value="Framework Server" style="rounded=0;whiteSpace=wrap;html=1;fillColor=none;align=left;verticalAlign=top;spacing=10;fontStyle=1;fontFamily=Helvetica;fontSize=13;" vertex="1" parent="1">
                    <mxGeometry x="880" y="640" width="1200" height="1940" as="geometry"/>
                </mxCell>
                <mxCell id="110" value="Docker" style="rounded=0;whiteSpace=wrap;html=1;fillColor=none;align=left;verticalAlign=top;spacing=10;fontStyle=1;fontFamily=Helvetica;fontSize=13;" vertex="1" parent="1">
                    <mxGeometry x="920" y="1520" width="500" height="180" as="geometry"/>
                </mxCell>
                <mxCell id="111" value="ゲートウェイAPI&lt;div&gt;（リクエスト形式チェック、APIが登録されているかチェック）&lt;/div&gt;" style="rounded=0;whiteSpace=wrap;html=1;fillColor=none;align=center;verticalAlign=middle;spacing=10;fontFamily=Helvetica;fontSize=13;" vertex="1" parent="1">
                    <mxGeometry x="960" y="1560" width="420" height="100" as="geometry"/>
                </mxCell>
                <mxCell id="112" value="" style="endArrow=classic;html=1;exitX=1;exitY=0.5;exitDx=0;exitDy=0;entryX=0;entryY=0.5;entryDx=0;entryDy=0;" edge="1" parent="1" source="62" target="111">
                    <mxGeometry width="50" height="50" relative="1" as="geometry">
                        <mxPoint x="1095" y="1305" as="sourcePoint"/>
                        <mxPoint x="1145" y="1255" as="targetPoint"/>
                        <Array as="points">
                            <mxPoint x="795" y="1350"/>
                            <mxPoint x="795" y="1610"/>
                        </Array>
                    </mxGeometry>
                </mxCell>
                <mxCell id="113" value="Docker" style="rounded=0;whiteSpace=wrap;html=1;fillColor=none;align=left;verticalAlign=top;spacing=10;fontStyle=1;fontFamily=Helvetica;fontSize=13;" vertex="1" parent="1">
                    <mxGeometry x="1540" y="680" width="500" height="180" as="geometry"/>
                </mxCell>
                <mxCell id="114" value="データベース処理API&lt;div&gt;（接続、クエリ発行）&lt;/div&gt;" style="rounded=0;whiteSpace=wrap;html=1;fillColor=none;align=center;verticalAlign=middle;spacing=10;fontFamily=Helvetica;fontSize=13;" vertex="1" parent="1">
                    <mxGeometry x="1580" y="720" width="420" height="100" as="geometry"/>
                </mxCell>
                <mxCell id="116" value="" style="endArrow=classic;html=1;exitX=1;exitY=0.5;exitDx=0;exitDy=0;entryX=0.5;entryY=1;entryDx=0;entryDy=0;" edge="1" parent="1" source="111" target="114">
                    <mxGeometry width="50" height="50" relative="1" as="geometry">
                        <mxPoint x="1190" y="1020" as="sourcePoint"/>
                        <mxPoint x="1240" y="970" as="targetPoint"/>
                    </mxGeometry>
                </mxCell>
                <mxCell id="117" value="Database" style="rounded=0;whiteSpace=wrap;html=1;fillColor=none;align=left;verticalAlign=top;spacing=10;fontStyle=1;fontFamily=Helvetica;fontSize=13;" vertex="1" parent="1">
                    <mxGeometry x="2220" y="80" width="820" height="1300" as="geometry"/>
                </mxCell>
                <mxCell id="118" value="User Databse" style="rounded=0;whiteSpace=wrap;html=1;fillColor=none;align=left;verticalAlign=top;spacing=10;fontStyle=1;fontFamily=Helvetica;fontSize=13;" vertex="1" parent="1">
                    <mxGeometry x="2260" y="120" width="740" height="240" as="geometry"/>
                </mxCell>
                <mxCell id="119" value="SQL Server" style="rounded=0;whiteSpace=wrap;html=1;fillColor=none;align=center;verticalAlign=middle;spacing=10;fontFamily=Helvetica;fontSize=13;" vertex="1" parent="1">
                    <mxGeometry x="2300" y="160" width="320" height="60" as="geometry"/>
                </mxCell>
                <mxCell id="120" value="Postgres" style="rounded=0;whiteSpace=wrap;html=1;fillColor=none;align=center;verticalAlign=middle;spacing=10;fontFamily=Helvetica;fontSize=13;" vertex="1" parent="1">
                    <mxGeometry x="2640" y="160" width="320" height="60" as="geometry"/>
                </mxCell>
                <mxCell id="121" value="Oracle" style="rounded=0;whiteSpace=wrap;html=1;fillColor=none;align=center;verticalAlign=middle;spacing=10;fontFamily=Helvetica;fontSize=13;" vertex="1" parent="1">
                    <mxGeometry x="2300" y="260" width="320" height="60" as="geometry"/>
                </mxCell>
                <mxCell id="122" value="Mysql" style="rounded=0;whiteSpace=wrap;html=1;fillColor=none;align=center;verticalAlign=middle;spacing=10;fontFamily=Helvetica;fontSize=13;" vertex="1" parent="1">
                    <mxGeometry x="2640" y="260" width="320" height="60" as="geometry"/>
                </mxCell>
                <mxCell id="123" value="Framework Databse" style="rounded=0;whiteSpace=wrap;html=1;fillColor=none;align=left;verticalAlign=top;spacing=10;fontStyle=1;fontFamily=Helvetica;fontSize=13;" vertex="1" parent="1">
                    <mxGeometry x="2260" y="400" width="740" height="940" as="geometry"/>
                </mxCell>
                <mxCell id="124" value="Postgres" style="rounded=0;whiteSpace=wrap;html=1;fillColor=none;align=left;verticalAlign=top;spacing=10;fontFamily=Helvetica;fontSize=13;fontStyle=1" vertex="1" parent="1">
                    <mxGeometry x="2300" y="440" width="660" height="860" as="geometry"/>
                </mxCell>
                <mxCell id="126" value="Table" style="rounded=0;whiteSpace=wrap;html=1;fillColor=none;align=left;verticalAlign=top;spacing=10;fontFamily=Helvetica;fontSize=13;fontStyle=1" vertex="1" parent="1">
                    <mxGeometry x="2340" y="480" width="580" height="780" as="geometry"/>
                </mxCell>
                <mxCell id="125" value="API管理" style="rounded=0;whiteSpace=wrap;html=1;fillColor=none;align=center;verticalAlign=middle;spacing=10;fontFamily=Helvetica;fontSize=13;" vertex="1" parent="1">
                    <mxGeometry x="2380" y="520" width="500" height="60" as="geometry"/>
                </mxCell>
                <mxCell id="127" value="" style="endArrow=classic;html=1;exitX=1;exitY=0.5;exitDx=0;exitDy=0;entryX=0;entryY=0.5;entryDx=0;entryDy=0;" edge="1" parent="1" source="114" target="125">
                    <mxGeometry width="50" height="50" relative="1" as="geometry">
                        <mxPoint x="1385" y="1615" as="sourcePoint"/>
                        <mxPoint x="1795" y="825" as="targetPoint"/>
                        <Array as="points">
                            <mxPoint x="2170" y="770"/>
                            <mxPoint x="2170" y="550"/>
                        </Array>
                    </mxGeometry>
                </mxCell>
                <mxCell id="128" value="Docker" style="rounded=0;whiteSpace=wrap;html=1;fillColor=none;align=left;verticalAlign=top;spacing=10;fontStyle=1;fontFamily=Helvetica;fontSize=13;" vertex="1" parent="1">
                    <mxGeometry x="920" y="1140" width="500" height="180" as="geometry"/>
                </mxCell>
                <mxCell id="129" value="トレーシングAPI&lt;div&gt;（通信情報を管理する）&lt;/div&gt;" style="rounded=0;whiteSpace=wrap;html=1;fillColor=none;align=center;verticalAlign=middle;spacing=10;fontFamily=Helvetica;fontSize=13;" vertex="1" parent="1">
                    <mxGeometry x="960" y="1180" width="420" height="100" as="geometry"/>
                </mxCell>
                <mxCell id="130" value="" style="endArrow=classic;html=1;entryX=0.5;entryY=1;entryDx=0;entryDy=0;" edge="1" parent="1" source="111" target="129">
                    <mxGeometry width="50" height="50" relative="1" as="geometry">
                        <mxPoint x="1385" y="1615" as="sourcePoint"/>
                        <mxPoint x="1795" y="825" as="targetPoint"/>
                    </mxGeometry>
                </mxCell>
                <mxCell id="131" value="" style="endArrow=classic;html=1;entryX=0.5;entryY=1;entryDx=0;entryDy=0;exitX=0.5;exitY=0;exitDx=0;exitDy=0;" edge="1" parent="1" source="129" target="114">
                    <mxGeometry width="50" height="50" relative="1" as="geometry">
                        <mxPoint x="1175" y="1565" as="sourcePoint"/>
                        <mxPoint x="1175" y="1285" as="targetPoint"/>
                    </mxGeometry>
                </mxCell>
                <mxCell id="132" value="ログ" style="rounded=0;whiteSpace=wrap;html=1;fillColor=none;align=center;verticalAlign=middle;spacing=10;fontFamily=Helvetica;fontSize=13;" vertex="1" parent="1">
                    <mxGeometry x="2380" y="600" width="500" height="60" as="geometry"/>
                </mxCell>
                <mxCell id="133" value="エラーログ" style="rounded=0;whiteSpace=wrap;html=1;fillColor=none;align=center;verticalAlign=middle;spacing=10;fontFamily=Helvetica;fontSize=13;" vertex="1" parent="1">
                    <mxGeometry x="2380" y="680" width="500" height="60" as="geometry"/>
                </mxCell>
                <mxCell id="134" value="システム設定" style="rounded=0;whiteSpace=wrap;html=1;fillColor=none;align=center;verticalAlign=middle;spacing=10;fontFamily=Helvetica;fontSize=13;" vertex="1" parent="1">
                    <mxGeometry x="2380" y="760" width="500" height="60" as="geometry"/>
                </mxCell>
                <mxCell id="135" value="ジョブ管理" style="rounded=0;whiteSpace=wrap;html=1;fillColor=none;align=center;verticalAlign=middle;spacing=10;fontFamily=Helvetica;fontSize=13;" vertex="1" parent="1">
                    <mxGeometry x="2380" y="840" width="500" height="60" as="geometry"/>
                </mxCell>
                <mxCell id="136" value="お問い合わせ" style="rounded=0;whiteSpace=wrap;html=1;fillColor=none;align=center;verticalAlign=middle;spacing=10;fontFamily=Helvetica;fontSize=13;" vertex="1" parent="1">
                    <mxGeometry x="2380" y="920" width="500" height="60" as="geometry"/>
                </mxCell>
            </root>
        </mxGraphModel>
    </diagram>
</mxfile>